:version 1.10
:name ASF
:units
  mass 1
  length 1
  angle deg
:documentation
  ASF file generated by Kaydara
:root
  axis xyz
  order  tx ty tz rx ry rz
  position 0 0 0
  orientation 0 0 0
:bonedata
  begin
    id 1
    name SpineDummy
    direction 0.999998 -0.00179978 1.38929e-006
    length 3.60008
    axis 0 0 0 xyz
  end
  begin
    id 2
    name Spine
    direction 0.964365 0.262802 0.0305839
    length 8.13928
    axis 1.33928 -1.75354 15.2838 xyz
    dof rx ry rz
  end
  begin
    id 3
    name Spine1
    direction 0.811168 0.572065 0.12144
    length 7.14954
    axis 2.2224 -6.9761 35.2157 xyz
    dof rx ry rz
  end
  begin
    id 4
    name Neck
    direction 0 0 0
    length 0
    axis 2.2224 -6.9761 35.2157 xyz
    dof rx ry rz
  end
  begin
    id 5
    name HeadDummy
    direction 0.810939 0.572387 0.121455
    length 3.55534
    axis 2.2224 -6.9761 35.2157 xyz
  end
  begin
    id 6
    name Head
    direction 0.998226 -0.000232542 0.0595419
    length 7.35666
    axis -3.03688 -3.41352 -0.0133467 xyz
    dof rx ry rz
  end
  begin
    id 7
    name R_ClavicleDummy
    direction 0.531669 -0.194489 -0.824319
    length 2.49392
    axis 2.2224 -6.9761 35.2157 xyz
  end
  begin
    id 8
    name R_Clavicle
    direction -0.155119 0.0480802 -0.986725
    length 4.485
    axis -54.2764 80.6538 162.779 xyz
    dof rx ry rz
  end
  begin
    id 9
    name R_UpperArm
    direction -0.955567 0.200068 -0.216484
    length 10.1122
    axis -72.9943 12.5026 168.175 xyz
    dof rx ry rz
  end
  begin
    id 10
    name R_Forearm
    direction -0.61433 0.385743 0.688332
    length 9.39148
    axis -117.015 -43.4982 147.875 xyz
    dof rx ry rz
  end
  begin
    id 11
    name R_Hand
    direction -0.699429 0.0170333 0.714499
    length 3.66324
    axis -45.0303 -36.7097 175.478 xyz
    dof rx ry rz
  end
  begin
    id 12
    name L_ClavicleDummy
    direction 0.40287 -0.36502 0.839319
    length 2.49392
    axis 2.2224 -6.9761 35.2157 xyz
  end
  begin
    id 13
    name L_Clavicle
    direction -0.231271 -0.0726419 0.970174
    length 4.485
    axis 18.4357 -75.9711 -162.563 xyz
    dof rx ry rz
  end
  begin
    id 14
    name L_UpperArm
    direction -0.917494 0.144359 0.370629
    length 10.1122
    axis 56.0417 -21.7544 171.058 xyz
    dof rx ry rz
  end
  begin
    id 15
    name L_Forearm
    direction -0.496786 0.615074 -0.612281
    length 9.39148
    axis 89.8094 37.7546 128.927 xyz
    dof rx ry rz
  end
  begin
    id 16
    name L_Hand
    direction -0.409932 0.64962 -0.640274
    length 3.66324
    axis -0.424369 32.133 128.52 xyz
    dof rx ry rz
  end
  begin
    id 17
    name L_ThighDummy
    direction -1.84081e-006 1.87549e-006 1
    length 3.13049
    axis 0 0 0 xyz
  end
  begin
    id 18
    name L_Thigh
    direction -0.947739 0.307978 0.083308
    length 17.9961
    axis 173.219 -4.77873 161.998 xyz
    dof rx ry rz
  end
  begin
    id 19
    name L_Calf
    direction -0.728814 -0.684427 0.0197583
    length 13.3367
    axis 167.331 -1.13214 -136.799 xyz
    dof rx ry rz
  end
  begin
    id 20
    name L_Foot
    direction -0.9028 0.418719 0.0981191
    length 5.8674
    axis 163.436 11.5135 -155.37 xyz
    dof rx ry rz
  end
  begin
    id 21
    name L_Toe0
    direction -0.35341 0.886259 0.299411
    length 4.75286
    axis 169.316 -17.4222 111.74 xyz
    dof rx ry rz
  end
  begin
    id 22
    name R_ThighDummy
    direction 9.32778e-007 -8.82053e-007 -1
    length 3.13049
    axis 0 0 0 xyz
  end
  begin
    id 23
    name R_Thigh
    direction -0.925064 0.37528 -0.0585023
    length 17.9961
    axis -178.698 3.35385 157.919 xyz
    dof rx ry rz
  end
  begin
    id 24
    name R_Calf
    direction -0.68969 -0.718776 -0.0876886
    length 13.3367
    axis -160.504 5.03065 -133.817 xyz
    dof rx ry rz
  end
  begin
    id 25
    name R_Foot
    direction -0.857405 0.418858 -0.299022
    length 5.8674
    axis -161.328 4.38911 -154.413 xyz
    dof rx ry rz
  end
  begin
    id 26
    name R_Toe0
    direction -0.100745 0.952789 -0.286433
    length 4.75286
    axis 171.683 16.6445 96.0359 xyz
    dof rx ry rz
  end
:hierarchy
  begin
    root SpineDummy L_ThighDummy R_ThighDummy
    SpineDummy Spine
    Spine Spine1
    Spine1 Neck
    Neck HeadDummy R_ClavicleDummy L_ClavicleDummy
    HeadDummy Head
    R_ClavicleDummy R_Clavicle
    R_Clavicle R_UpperArm
    R_UpperArm R_Forearm
    R_Forearm R_Hand
    L_ClavicleDummy L_Clavicle
    L_Clavicle L_UpperArm
    L_UpperArm L_Forearm
    L_Forearm L_Hand
    L_ThighDummy L_Thigh
    L_Thigh L_Calf
    L_Calf L_Foot
    L_Foot L_Toe0
    R_ThighDummy R_Thigh
    R_Thigh R_Calf
    R_Calf R_Foot
    R_Foot R_Toe0
  end

:SAMPLES-PER-SECOND 30
:FULLY-SPECIFIED
:DEGREES
122
root  -3.72485 32.4366 25.0318 91.1731 9.89764 89.2928
Spine  -2.96 2.50027 -14.2266
Spine1  -0.676846 13.6824 10.2229
Neck  3.97569e-016 0 -2.38542e-015
Head  13.2766 -13.7355 35.0147
R_Clavicle  0.407206 -17.462 1.80193
R_UpperArm  3.61132 8.23489 16.7778
R_Forearm  24.8223 -17.3901 15.0543
R_Hand  -1.30244 8.81834 -21.2324
L_Clavicle  -0.75069 20.8131 -3.50381
L_UpperArm  -19.059 17.3811 26.1208
L_Forearm  18.6712 42.9379 44.4245
L_Hand  0.132772 -1.25521 3.38066
L_Thigh  -3.69142 1.86541 -1.31946
L_Calf  -3.84492 0.898099 -7.01179
L_Foot  1.6383 9.28346 -2.25256
L_Toe0  0.505156 0.0345937 -6.1361
R_Thigh  -0.231485 4.22972 -18.6253
R_Calf  0.908724 7.96293 25.9093
R_Foot  -1.17564 -1.40688 5.91412
R_Toe0  -0.743149 -0.265777 -16.7291
123
root  -3.7129 32.7698 26.0715 91.5133 9.20533 89.6164
Spine  -1.33284 5.01432 -14.6471
Spine1  0.136 9.446 7.72469
Neck  3.97569e-016 0 -2.38542e-015
Head  9.39759 -11.9765 37.4263
R_Clavicle  0.403213 -17.4634 1.71099
R_UpperArm  0.572244 8.35476 18.4753
R_Forearm  27.3583 -19.3263 16.9254
R_Hand  -1.22886 8.54844 -20.6867
L_Clavicle  -0.719336 20.3329 -3.47306
L_UpperArm  -20.0763 18.8789 28.2088
L_Forearm  15.5259 42.2842 44.9066
L_Hand  0.142647 -0.94429 3.41408
L_Thigh  -5.32724 1.24234 -0.177992
L_Calf  -1.73223 -0.573839 3.71055
L_Foot  1.70704 9.21908 -1.95518
L_Toe0  0.505156 0.0347392 -6.13609
R_Thigh  0.678782 3.47355 -21.5383
R_Calf  0.748355 9.08871 29.934
R_Foot  -1.1947 -1.79133 5.08188
R_Toe0  -0.401177 -0.268296 -16.5347
124
root  -3.6992 33.0286 27.0771 91.7682 8.61037 89.8495
Spine  0.228284 7.73409 -14.4848
Spine1  0.986022 4.84619 5.70448
Neck  3.97569e-016 0 -2.38542e-015
Head  6.25423 -10.2096 37.8717
R_Clavicle  0.400185 -17.2501 1.66404
R_UpperArm  -2.62037 8.29604 19.8009
R_Forearm  29.7474 -21.2959 18.8567
R_Hand  -1.13977 8.43888 -20.0142
L_Clavicle  -0.686071 19.9441 -3.22295
L_UpperArm  -19.0895 19.0305 30.0935
L_Forearm  11.1692 41.275 43.859
L_Hand  0.180367 0.212998 3.56506
L_Thigh  -7.55147 0.829733 -0.0100064
L_Calf  1.07596 -2.25106 16.3592
L_Foot  1.53737 8.72537 -2.17146
L_Toe0  0.505156 0.034922 -6.13609
R_Thigh  1.74689 2.8486 -24.5815
R_Calf  0.622734 10.1563 34.0089
R_Foot  -1.45772 -2.79544 4.56616
R_Toe0  -0.236708 -0.270104 -16.4411
125
root  -3.7175 33.1645 28.0668 92.1971 8.48894 89.6697
Spine  1.45018 10.4153 -13.859
Spine1  1.66459 0.698937 4.79258
Neck  3.97569e-016 0 -2.38542e-015
Head  4.1594 -8.9632 36.5262
R_Clavicle  0.393168 -16.474 1.59513
R_UpperArm  -4.41044 8.12339 20.2535
R_Forearm  30.7219 -23.8662 20.2172
R_Hand  -1.07253 8.48068 -19.5136
L_Clavicle  -0.660322 19.6321 -3.00982
L_UpperArm  -16.8264 18.3929 31.4561
L_Forearm  7.16439 39.5398 41.8952
L_Hand  0.237476 1.26729 4.01119
L_Thigh  -9.49493 0.832599 -0.667346
L_Calf  3.67679 -4.04189 29.0215
L_Foot  0.970544 7.92224 -3.62219
L_Toe0  0.505156 0.0351336 -6.13609
R_Thigh  2.45525 2.86496 -28.1662
R_Calf  0.963391 11.2319 38.2808
R_Foot  -1.57583 -3.33381 4.15931
R_Toe0  -0.310267 -0.267456 -16.4829
126
root  -3.74527 33.0873 29.0697 93.1759 8.55092 89.1007
Spine  2.09885 12.1208 -13.5126
Spine1  2.04158 -1.7726 4.87291
Neck  3.97569e-016 0 -2.38542e-015
Head  3.12399 -8.33202 34.161
R_Clavicle  0.376235 -15.3571 1.41705
R_UpperArm  -1.67879 8.07655 20.1391
R_Forearm  27.9597 -28.1137 19.8562
R_Hand  -1.0342 8.57426 -19.2374
L_Clavicle  -0.637744 19.3008 -2.89749
L_UpperArm  -14.431 17.5341 31.887
L_Forearm  4.01127 37.6508 40.2699
L_Hand  0.242731 1.466 3.99908
L_Thigh  -8.25133 0.885737 -0.878672
L_Calf  3.34028 -6.15764 37.2535
L_Foot  0.390181 8.87811 -6.42309
L_Toe0  0.505156 0.0353655 -6.13609
R_Thigh  2.59041 3.47993 -31.505
R_Calf  1.87472 12.2865 41.416
R_Foot  -1.36177 -2.59209 4.37069
R_Toe0  -0.482991 -0.26526 -16.5814
